<svg width="151" height="16" viewBox="0 0 151 16" fill="none" xmlns="http://www.w3.org/2000/svg">
<g clip-path="url(#clip0)">
<path d="M3.54594 9.66905L2.989 11.7482L0.953406 11.7912C0.345063 10.6629 0 9.37192 0 8.00005C0 6.67345 0.322625 5.42245 0.8945 4.32092H0.894938L2.70719 4.65317L3.50106 6.45455C3.33491 6.93895 3.24434 7.45895 3.24434 8.00005C3.24441 8.5873 3.35078 9.14995 3.54594 9.66905Z" fill="#FBBB00"/>
<path d="M15.8602 6.50562C15.9521 6.98955 16 7.48933 16 8.00012C16 8.57287 15.9398 9.13155 15.8251 9.67046C15.4357 11.5043 14.4181 13.1056 13.0084 14.2388L13.008 14.2384L10.7253 14.1219L10.4023 12.1052C11.3377 11.5566 12.0687 10.6981 12.4537 9.67046H8.1759V6.50562H12.5161H15.8602Z" fill="#518EF8"/>
<path d="M13.0081 14.2382L13.0085 14.2386C11.6375 15.3406 9.89596 15.9999 8.00015 15.9999C4.95355 15.9999 2.30477 14.2971 0.953552 11.7911L3.54608 9.66895C4.22168 11.472 5.96102 12.7555 8.00015 12.7555C8.87662 12.7555 9.69774 12.5186 10.4023 12.105L13.0081 14.2382Z" fill="#28B446"/>
<path d="M13.1064 1.84175L10.5148 3.9635C9.78553 3.50769 8.92353 3.24438 8.00003 3.24438C5.91475 3.24438 4.14288 4.58678 3.50113 6.4545L0.894969 4.32088H0.894531C2.22597 1.75384 4.90816 0 8.00003 0C9.94112 0 11.7209 0.691438 13.1064 1.84175Z" fill="#F14336"/>
</g>
<path d="M30.046 13.168C29.2527 13.168 28.576 13.0187 28.016 12.72C27.456 12.412 26.98 11.992 26.588 11.46L27.456 10.732C27.8013 11.1893 28.184 11.5393 28.604 11.782C29.024 12.0153 29.5187 12.132 30.088 12.132C30.788 12.132 31.32 11.964 31.684 11.628C32.0573 11.292 32.244 10.844 32.244 10.284C32.244 9.81733 32.104 9.458 31.824 9.206C31.544 8.954 31.082 8.75333 30.438 8.604L29.64 8.422C28.744 8.21667 28.058 7.90867 27.582 7.498C27.1153 7.078 26.882 6.49 26.882 5.734C26.882 5.30467 26.9613 4.922 27.12 4.586C27.2787 4.25 27.498 3.97 27.778 3.746C28.0673 3.522 28.408 3.354 28.8 3.242C29.2013 3.12067 29.64 3.06 30.116 3.06C30.8533 3.06 31.4833 3.19533 32.006 3.466C32.538 3.73667 32.986 4.13333 33.35 4.656L32.468 5.3C32.1973 4.92667 31.8707 4.63267 31.488 4.418C31.1053 4.20333 30.6293 4.096 30.06 4.096C29.4347 4.096 28.94 4.23133 28.576 4.502C28.2213 4.76333 28.044 5.16 28.044 5.692C28.044 6.15867 28.1933 6.51333 28.492 6.756C28.8 6.98933 29.262 7.176 29.878 7.316L30.676 7.498C31.6373 7.71267 32.3327 8.03933 32.762 8.478C33.1913 8.91667 33.406 9.5 33.406 10.228C33.406 10.676 33.3267 11.082 33.168 11.446C33.0187 11.81 32.7993 12.118 32.51 12.37C32.2207 12.622 31.866 12.818 31.446 12.958C31.0353 13.098 30.5687 13.168 30.046 13.168ZM35.8848 4.082C35.6421 4.082 35.4648 4.026 35.3528 3.914C35.2501 3.79267 35.1988 3.63867 35.1988 3.452V3.27C35.1988 3.08333 35.2501 2.934 35.3528 2.822C35.4648 2.70067 35.6421 2.64 35.8848 2.64C36.1274 2.64 36.3001 2.70067 36.4028 2.822C36.5148 2.934 36.5708 3.08333 36.5708 3.27V3.452C36.5708 3.63867 36.5148 3.79267 36.4028 3.914C36.3001 4.026 36.1274 4.082 35.8848 4.082ZM35.3248 5.776H36.4448V13H35.3248V5.776ZM44.9148 13.798C44.9148 14.5447 44.6208 15.0907 44.0328 15.436C43.4541 15.7907 42.5814 15.968 41.4148 15.968C40.2854 15.968 39.4734 15.814 38.9788 15.506C38.4841 15.198 38.2368 14.7593 38.2368 14.19C38.2368 13.798 38.3394 13.49 38.5448 13.266C38.7501 13.0513 39.0301 12.8927 39.3848 12.79V12.636C38.9554 12.4307 38.7408 12.0947 38.7408 11.628C38.7408 11.264 38.8574 10.9887 39.0908 10.802C39.3241 10.606 39.6228 10.4613 39.9868 10.368V10.312C39.5574 10.1067 39.2214 9.81267 38.9788 9.43C38.7454 9.04733 38.6288 8.604 38.6288 8.1C38.6288 7.736 38.6941 7.4 38.8248 7.092C38.9554 6.784 39.1374 6.52267 39.3708 6.308C39.6134 6.084 39.8981 5.91133 40.2248 5.79C40.5608 5.66867 40.9341 5.608 41.3448 5.608C41.8581 5.608 42.3154 5.70133 42.7168 5.888V5.762C42.7168 5.482 42.7821 5.25333 42.9128 5.076C43.0434 4.88933 43.2581 4.796 43.5568 4.796H44.6348V5.776H43.2628V6.238C43.5241 6.462 43.7248 6.73267 43.8648 7.05C44.0141 7.358 44.0888 7.708 44.0888 8.1C44.0888 8.464 44.0234 8.8 43.8928 9.108C43.7621 9.416 43.5754 9.682 43.3328 9.906C43.0994 10.1207 42.8148 10.2887 42.4788 10.41C42.1428 10.5313 41.7694 10.592 41.3588 10.592C41.1254 10.592 40.8921 10.5687 40.6588 10.522C40.4161 10.5873 40.1968 10.6853 40.0008 10.816C39.8048 10.9373 39.7068 11.11 39.7068 11.334C39.7068 11.5487 39.8094 11.6933 40.0148 11.768C40.2201 11.8427 40.4861 11.88 40.8128 11.88H42.3528C43.2488 11.88 43.8974 12.0527 44.2988 12.398C44.7094 12.734 44.9148 13.2007 44.9148 13.798ZM43.8648 13.882C43.8648 13.5927 43.7528 13.3593 43.5288 13.182C43.3141 13.014 42.9268 12.93 42.3668 12.93H39.9588C39.5108 13.1353 39.2868 13.462 39.2868 13.91C39.2868 14.2273 39.4034 14.498 39.6368 14.722C39.8794 14.946 40.2854 15.058 40.8548 15.058H41.8908C42.5161 15.058 43.0014 14.96 43.3468 14.764C43.6921 14.568 43.8648 14.274 43.8648 13.882ZM41.3588 9.696C41.8348 9.696 42.2128 9.584 42.4928 9.36C42.7728 9.12667 42.9128 8.772 42.9128 8.296V7.904C42.9128 7.428 42.7728 7.078 42.4928 6.854C42.2128 6.62067 41.8348 6.504 41.3588 6.504C40.8828 6.504 40.5048 6.62067 40.2248 6.854C39.9448 7.078 39.8048 7.428 39.8048 7.904V8.296C39.8048 8.772 39.9448 9.12667 40.2248 9.36C40.5048 9.584 40.8828 9.696 41.3588 9.696ZM46.2213 13V5.776H47.3413V6.952H47.3973C47.5746 6.54133 47.8219 6.21467 48.1393 5.972C48.4659 5.72933 48.8999 5.608 49.4413 5.608C50.1879 5.608 50.7759 5.85067 51.2053 6.336C51.6439 6.812 51.8633 7.48867 51.8633 8.366V13H50.7433V8.562C50.7433 7.26467 50.1973 6.616 49.1053 6.616C48.8813 6.616 48.6619 6.644 48.4473 6.7C48.2419 6.756 48.0553 6.84 47.8873 6.952C47.7193 7.064 47.5839 7.20867 47.4813 7.386C47.3879 7.554 47.3413 7.75467 47.3413 7.988V13H46.2213ZM61.9389 11.824H61.8829C61.8082 11.992 61.7149 12.16 61.6029 12.328C61.5002 12.4867 61.3695 12.6313 61.2109 12.762C61.0522 12.8833 60.8609 12.9813 60.6369 13.056C60.4129 13.1307 60.1515 13.168 59.8529 13.168C59.1062 13.168 58.5135 12.93 58.0749 12.454C57.6362 11.9687 57.4169 11.2873 57.4169 10.41V5.776H58.5369V10.214C58.5369 11.5113 59.0875 12.16 60.1889 12.16C60.4129 12.16 60.6275 12.132 60.8329 12.076C61.0475 12.02 61.2342 11.936 61.3929 11.824C61.5609 11.712 61.6915 11.572 61.7849 11.404C61.8875 11.2267 61.9389 11.0167 61.9389 10.774V5.776H63.0589V13H61.9389V11.824ZM65.4439 5.776H66.5639V6.952H66.6199C66.8066 6.49467 67.0772 6.15867 67.4319 5.944C67.7959 5.72 68.2299 5.608 68.7339 5.608C69.1819 5.608 69.5879 5.69667 69.9519 5.874C70.3159 6.05133 70.6239 6.30333 70.8759 6.63C71.1372 6.95667 71.3332 7.35333 71.4639 7.82C71.6039 8.28667 71.6739 8.80933 71.6739 9.388C71.6739 9.96667 71.6039 10.4893 71.4639 10.956C71.3332 11.4227 71.1372 11.8193 70.8759 12.146C70.6239 12.4727 70.3159 12.7247 69.9519 12.902C69.5879 13.0793 69.1819 13.168 68.7339 13.168C67.7539 13.168 67.0492 12.72 66.6199 11.824H66.5639V15.8H65.4439V5.776ZM68.4259 12.16C69.0606 12.16 69.5599 11.964 69.9239 11.572C70.2879 11.1707 70.4699 10.648 70.4699 10.004V8.772C70.4699 8.128 70.2879 7.61 69.9239 7.218C69.5599 6.81667 69.0606 6.616 68.4259 6.616C68.1739 6.616 67.9312 6.65333 67.6979 6.728C67.4739 6.79333 67.2779 6.88667 67.1099 7.008C66.9419 7.12933 66.8066 7.27867 66.7039 7.456C66.6106 7.624 66.5639 7.806 66.5639 8.002V10.69C66.5639 10.9233 66.6106 11.1333 66.7039 11.32C66.8066 11.4973 66.9419 11.6513 67.1099 11.782C67.2779 11.9033 67.4739 11.9967 67.6979 12.062C67.9312 12.1273 68.1739 12.16 68.4259 12.16ZM76.1176 5.776H77.2096L77.9796 8.898L78.7496 12.062H78.7776L79.6596 8.898L80.5696 5.776H81.5636L82.5016 8.898L83.3976 12.062H83.4256L84.1676 8.898L84.9516 5.776H86.0016L84.0836 13H82.6976L81.6896 9.528L81.0596 7.33H81.0316L80.4156 9.528L79.4076 13H78.0496L76.1176 5.776ZM88.1797 4.082C87.937 4.082 87.7597 4.026 87.6477 3.914C87.545 3.79267 87.4937 3.63867 87.4937 3.452V3.27C87.4937 3.08333 87.545 2.934 87.6477 2.822C87.7597 2.70067 87.937 2.64 88.1797 2.64C88.4224 2.64 88.595 2.70067 88.6977 2.822C88.8097 2.934 88.8657 3.08333 88.8657 3.27V3.452C88.8657 3.63867 88.8097 3.79267 88.6977 3.914C88.595 4.026 88.4224 4.082 88.1797 4.082ZM87.6197 5.776H88.7397V13H87.6197V5.776ZM92.7157 13C92.3237 13 92.025 12.8927 91.8197 12.678C91.6237 12.454 91.5257 12.1647 91.5257 11.81V6.756H90.3357V5.776H91.0077C91.2504 5.776 91.4137 5.72933 91.4977 5.636C91.591 5.53333 91.6377 5.36067 91.6377 5.118V3.774H92.6457V5.776H94.2277V6.756H92.6457V12.02H94.1157V13H92.7157ZM96.0279 2.64H97.1479V6.952H97.2039C97.3812 6.54133 97.6286 6.21467 97.9459 5.972C98.2726 5.72933 98.7066 5.608 99.2479 5.608C99.9946 5.608 100.583 5.85067 101.012 6.336C101.451 6.812 101.67 7.48867 101.67 8.366V13H100.55V8.562C100.55 7.26467 100.004 6.616 98.9119 6.616C98.6879 6.616 98.4686 6.644 98.2539 6.7C98.0486 6.756 97.8619 6.84 97.6939 6.952C97.5259 7.064 97.3906 7.20867 97.2879 7.386C97.1946 7.554 97.1479 7.75467 97.1479 7.988V13H96.0279V2.64ZM113.734 11.572H113.692C113.57 12.0293 113.272 12.412 112.796 12.72C112.329 13.0187 111.722 13.168 110.976 13.168C110.378 13.168 109.828 13.0607 109.324 12.846C108.829 12.622 108.404 12.3 108.05 11.88C107.695 11.4507 107.415 10.9233 107.21 10.298C107.014 9.66333 106.916 8.93533 106.916 8.114C106.916 7.302 107.014 6.58333 107.21 5.958C107.406 5.32333 107.686 4.796 108.05 4.376C108.414 3.94667 108.852 3.62 109.366 3.396C109.879 3.172 110.448 3.06 111.074 3.06C111.951 3.06 112.684 3.256 113.272 3.648C113.86 4.04 114.312 4.558 114.63 5.202L113.664 5.79C113.44 5.26733 113.104 4.85667 112.656 4.558C112.217 4.25933 111.69 4.11 111.074 4.11C110.644 4.11 110.252 4.18933 109.898 4.348C109.543 4.49733 109.235 4.712 108.974 4.992C108.722 5.272 108.526 5.608 108.386 6C108.246 6.392 108.176 6.83067 108.176 7.316V8.898C108.176 9.38333 108.246 9.82667 108.386 10.228C108.526 10.62 108.722 10.956 108.974 11.236C109.235 11.516 109.552 11.7353 109.926 11.894C110.299 12.0433 110.719 12.118 111.186 12.118C111.522 12.118 111.839 12.076 112.138 11.992C112.446 11.8987 112.712 11.7633 112.936 11.586C113.169 11.4087 113.351 11.1893 113.482 10.928C113.612 10.6573 113.678 10.34 113.678 9.976V9.01H111.522V7.974H114.826V13H113.734V11.572ZM119.758 13.168C119.273 13.168 118.829 13.0793 118.428 12.902C118.027 12.7247 117.681 12.4727 117.392 12.146C117.112 11.81 116.893 11.4133 116.734 10.956C116.575 10.4893 116.496 9.96667 116.496 9.388C116.496 8.81867 116.575 8.30067 116.734 7.834C116.893 7.36733 117.112 6.97067 117.392 6.644C117.681 6.308 118.027 6.05133 118.428 5.874C118.829 5.69667 119.273 5.608 119.758 5.608C120.243 5.608 120.682 5.69667 121.074 5.874C121.475 6.05133 121.821 6.308 122.11 6.644C122.399 6.97067 122.623 7.36733 122.782 7.834C122.941 8.30067 123.02 8.81867 123.02 9.388C123.02 9.96667 122.941 10.4893 122.782 10.956C122.623 11.4133 122.399 11.81 122.11 12.146C121.821 12.4727 121.475 12.7247 121.074 12.902C120.682 13.0793 120.243 13.168 119.758 13.168ZM119.758 12.174C120.365 12.174 120.859 11.9873 121.242 11.614C121.625 11.2407 121.816 10.6713 121.816 9.906V8.87C121.816 8.10467 121.625 7.53533 121.242 7.162C120.859 6.78867 120.365 6.602 119.758 6.602C119.151 6.602 118.657 6.78867 118.274 7.162C117.891 7.53533 117.7 8.10467 117.7 8.87V9.906C117.7 10.6713 117.891 11.2407 118.274 11.614C118.657 11.9873 119.151 12.174 119.758 12.174ZM127.592 13.168C127.107 13.168 126.663 13.0793 126.262 12.902C125.861 12.7247 125.515 12.4727 125.226 12.146C124.946 11.81 124.727 11.4133 124.568 10.956C124.409 10.4893 124.33 9.96667 124.33 9.388C124.33 8.81867 124.409 8.30067 124.568 7.834C124.727 7.36733 124.946 6.97067 125.226 6.644C125.515 6.308 125.861 6.05133 126.262 5.874C126.663 5.69667 127.107 5.608 127.592 5.608C128.077 5.608 128.516 5.69667 128.908 5.874C129.309 6.05133 129.655 6.308 129.944 6.644C130.233 6.97067 130.457 7.36733 130.616 7.834C130.775 8.30067 130.854 8.81867 130.854 9.388C130.854 9.96667 130.775 10.4893 130.616 10.956C130.457 11.4133 130.233 11.81 129.944 12.146C129.655 12.4727 129.309 12.7247 128.908 12.902C128.516 13.0793 128.077 13.168 127.592 13.168ZM127.592 12.174C128.199 12.174 128.693 11.9873 129.076 11.614C129.459 11.2407 129.65 10.6713 129.65 9.906V8.87C129.65 8.10467 129.459 7.53533 129.076 7.162C128.693 6.78867 128.199 6.602 127.592 6.602C126.985 6.602 126.491 6.78867 126.108 7.162C125.725 7.53533 125.534 8.10467 125.534 8.87V9.906C125.534 10.6713 125.725 11.2407 126.108 11.614C126.491 11.9873 126.985 12.174 127.592 12.174ZM138.786 13.798C138.786 14.5447 138.492 15.0907 137.904 15.436C137.325 15.7907 136.453 15.968 135.286 15.968C134.157 15.968 133.345 15.814 132.85 15.506C132.355 15.198 132.108 14.7593 132.108 14.19C132.108 13.798 132.211 13.49 132.416 13.266C132.621 13.0513 132.901 12.8927 133.256 12.79V12.636C132.827 12.4307 132.612 12.0947 132.612 11.628C132.612 11.264 132.729 10.9887 132.962 10.802C133.195 10.606 133.494 10.4613 133.858 10.368V10.312C133.429 10.1067 133.093 9.81267 132.85 9.43C132.617 9.04733 132.5 8.604 132.5 8.1C132.5 7.736 132.565 7.4 132.696 7.092C132.827 6.784 133.009 6.52267 133.242 6.308C133.485 6.084 133.769 5.91133 134.096 5.79C134.432 5.66867 134.805 5.608 135.216 5.608C135.729 5.608 136.187 5.70133 136.588 5.888V5.762C136.588 5.482 136.653 5.25333 136.784 5.076C136.915 4.88933 137.129 4.796 137.428 4.796H138.506V5.776H137.134V6.238C137.395 6.462 137.596 6.73267 137.736 7.05C137.885 7.358 137.96 7.708 137.96 8.1C137.96 8.464 137.895 8.8 137.764 9.108C137.633 9.416 137.447 9.682 137.204 9.906C136.971 10.1207 136.686 10.2887 136.35 10.41C136.014 10.5313 135.641 10.592 135.23 10.592C134.997 10.592 134.763 10.5687 134.53 10.522C134.287 10.5873 134.068 10.6853 133.872 10.816C133.676 10.9373 133.578 11.11 133.578 11.334C133.578 11.5487 133.681 11.6933 133.886 11.768C134.091 11.8427 134.357 11.88 134.684 11.88H136.224C137.12 11.88 137.769 12.0527 138.17 12.398C138.581 12.734 138.786 13.2007 138.786 13.798ZM137.736 13.882C137.736 13.5927 137.624 13.3593 137.4 13.182C137.185 13.014 136.798 12.93 136.238 12.93H133.83C133.382 13.1353 133.158 13.462 133.158 13.91C133.158 14.2273 133.275 14.498 133.508 14.722C133.751 14.946 134.157 15.058 134.726 15.058H135.762C136.387 15.058 136.873 14.96 137.218 14.764C137.563 14.568 137.736 14.274 137.736 13.882ZM135.23 9.696C135.706 9.696 136.084 9.584 136.364 9.36C136.644 9.12667 136.784 8.772 136.784 8.296V7.904C136.784 7.428 136.644 7.078 136.364 6.854C136.084 6.62067 135.706 6.504 135.23 6.504C134.754 6.504 134.376 6.62067 134.096 6.854C133.816 7.078 133.676 7.428 133.676 7.904V8.296C133.676 8.772 133.816 9.12667 134.096 9.36C134.376 9.584 134.754 9.696 135.23 9.696ZM141.282 13C140.89 13 140.592 12.8927 140.386 12.678C140.19 12.454 140.092 12.174 140.092 11.838V2.64H141.212V12.02H142.276V13H141.282ZM146.623 13.168C146.128 13.168 145.68 13.0793 145.279 12.902C144.887 12.7247 144.546 12.4727 144.257 12.146C143.977 11.81 143.757 11.4133 143.599 10.956C143.449 10.4893 143.375 9.96667 143.375 9.388C143.375 8.81867 143.449 8.30067 143.599 7.834C143.757 7.36733 143.977 6.97067 144.257 6.644C144.546 6.308 144.887 6.05133 145.279 5.874C145.68 5.69667 146.128 5.608 146.623 5.608C147.108 5.608 147.542 5.69667 147.925 5.874C148.307 6.05133 148.634 6.29867 148.905 6.616C149.175 6.924 149.381 7.29267 149.521 7.722C149.67 8.15133 149.745 8.62267 149.745 9.136V9.668H144.551V10.004C144.551 10.312 144.597 10.6013 144.691 10.872C144.793 11.1333 144.933 11.362 145.111 11.558C145.297 11.754 145.521 11.908 145.783 12.02C146.053 12.132 146.357 12.188 146.693 12.188C147.15 12.188 147.547 12.0807 147.883 11.866C148.228 11.6513 148.494 11.3433 148.681 10.942L149.479 11.516C149.245 12.0107 148.881 12.412 148.387 12.72C147.892 13.0187 147.304 13.168 146.623 13.168ZM146.623 6.546C146.315 6.546 146.035 6.602 145.783 6.714C145.531 6.81667 145.311 6.966 145.125 7.162C144.947 7.358 144.807 7.59133 144.705 7.862C144.602 8.12333 144.551 8.41267 144.551 8.73V8.828H148.541V8.674C148.541 8.03 148.363 7.51667 148.009 7.134C147.663 6.742 147.201 6.546 146.623 6.546Z" fill="black"/>
<defs>
<clipPath id="clip0">
<rect width="16" height="16" fill="white"/>
</clipPath>
</defs>
</svg>
